<?xml version="1.0" encoding="UTF-8" standalone="no"?>
<svg width="16px" height="15px" viewBox="0 0 16 15" version="1.1" xmlns="http://www.w3.org/2000/svg" xmlns:xlink="http://www.w3.org/1999/xlink">
    <!-- Generator: Sketch 42 (36781) - http://www.bohemiancoding.com/sketch -->
    <title>Facebook-black</title>
    <desc>Created with Sketch.</desc>
    <defs></defs>
    <g id="Page-1" stroke="none" stroke-width="1" fill="none" fill-rule="evenodd" opacity="0.978374094">
        <g id="HG" transform="translate(-1202.000000, -570.000000)" fill="#FFFFFF">
            <g id="social-icns" transform="translate(1201.000000, 570.000000)">
                <g id="Facebook-black" transform="translate(1.565217, 0.000000)">
                    <g id="Icons">
                        <g>
                            <g id="Black">
                                <path d="M7.94231649,14.8054039 L0.820686,14.8054039 C0.367300875,14.8054039 0,14.4394612 0,13.9882082 L0,0.817138309 C0,0.365770587 0.367358495,0 0.820686,0 L14.0489371,0 C14.5021491,0 14.8695652,0.365770587 14.8695652,0.817138309 L14.8695652,13.9882082 C14.8695652,14.4395185 14.5020915,14.8054039 14.0489371,14.8054039 L10.2597847,14.8054039 L10.2597847,9.07193566 L12.1925853,9.07193566 L12.4819948,6.83750133 L10.2597847,6.83750133 L10.2597847,5.41095594 C10.2597847,4.76403567 10.4402043,4.32318102 11.3718996,4.32318102 L12.5602322,4.32266375 L12.5602322,2.32416803 C12.3547147,2.2969375 11.6493081,2.23610025 10.8286221,2.23610025 C9.11530184,2.23610025 7.94231649,3.27740008 7.94231649,5.18966697 L7.94231649,6.83750133 L6.0045541,6.83750133 L6.0045541,9.07193566 L7.94231649,9.07193566 L7.94231649,14.8054039 L7.94231649,14.8054039 Z" id="Facebook"></path>
                            </g>
                        </g>
                    </g>
                </g>
            </g>
        </g>
    </g>
</svg>