<?xml version="1.0" encoding="UTF-8" standalone="no"?>
<svg width="16px" height="16px" viewBox="0 0 16 16" version="1.1" xmlns="http://www.w3.org/2000/svg" xmlns:xlink="http://www.w3.org/1999/xlink">
    <!-- Generator: Sketch 42 (36781) - http://www.bohemiancoding.com/sketch -->
    <title>Instagram-black</title>
    <desc>Created with Sketch.</desc>
    <defs></defs>
    <g id="Page-1" stroke="none" stroke-width="1" fill="none" fill-rule="evenodd" opacity="0.978374094">
        <g id="HG" transform="translate(-1202.000000, -606.000000)" fill="#FFFFFF">
            <g id="social-icns" transform="translate(1201.000000, 570.000000)">
                <g id="Instagram-black" transform="translate(1.565217, 36.623894)">
                    <g id="Icons">
                        <g>
                            <g id="Black">
                                <path d="M7.43479748,0 C5.41561678,0 5.1624299,0.00852174372 4.36943134,0.044547918 C3.57808547,0.0804855684 3.03762448,0.205636881 2.56471748,0.388647095 C2.07581485,0.577798776 1.66119499,0.830921523 1.247844,1.24245962 C0.83452244,1.65402703 0.58030275,2.06685782 0.390331353,2.55365087 C0.206528038,3.0245173 0.0808343641,3.56264624 0.0447409728,4.35057749 C0.00855867391,5.14015431 0,5.39224869 0,7.40271674 C0,9.41315518 0.00855867391,9.66524957 0.0447409728,10.4548264 C0.0808343641,11.2427576 0.206528038,11.7808866 0.390331353,12.251753 C0.58030275,12.7385461 0.83452244,13.1513769 1.247844,13.5629443 C1.66119499,13.9744824 2.07581485,14.2276051 2.56471748,14.4167864 C3.03762448,14.599767 3.57808547,14.7249183 4.36943134,14.760856 C5.1624299,14.7968821 5.41561678,14.8054039 7.43479748,14.8054039 C9.45394844,14.8054039 9.70713532,14.7968821 10.5001339,14.760856 C11.2914797,14.7249183 11.8319407,14.599767 12.3048477,14.4167864 C12.7937504,14.2276051 13.2083702,13.9744824 13.6217212,13.5629443 C14.0350428,13.1513769 14.2892625,12.7385461 14.4792636,12.251753 C14.6630372,11.7808866 14.7887309,11.2427576 14.8248242,10.4548264 C14.8610065,9.66524957 14.8695652,9.41315518 14.8695652,7.40271674 C14.8695652,5.39224869 14.8610065,5.14015431 14.8248242,4.35057749 C14.7887309,3.56264624 14.6630372,3.0245173 14.4792636,2.55365087 C14.2892625,2.06685782 14.0350428,1.65402703 13.6217212,1.24245962 C13.2083702,0.830921523 12.7937504,0.577798776 12.3048477,0.388647095 C11.8319407,0.205636881 11.2914797,0.0804855684 10.5001339,0.044547918 C9.70713532,0.00852174372 9.45394844,0 7.43479748,0 Z M7.43479748,1.33381791 C9.41995011,1.33381791 9.65510485,1.3413699 10.4390729,1.37698461 C11.1639568,1.40989579 11.557623,1.53049197 11.8196046,1.63187043 C12.166641,1.76616038 12.4143094,1.92657354 12.6744611,2.18563233 C12.9346426,2.4446615 13.0957509,2.69126123 13.2306228,3.03680024 C13.3324406,3.29765141 13.4535594,3.68961892 13.4866132,4.41137496 C13.5223823,5.19196027 13.529967,5.42610033 13.529967,7.40271674 C13.529967,9.37930355 13.5223823,9.61344361 13.4866132,10.3940289 C13.4535594,11.115785 13.3324406,11.5077525 13.2306228,11.7686036 C13.0957509,12.1141426 12.9346426,12.3607424 12.6744611,12.6197716 C12.4143094,12.8788303 12.166641,13.0392435 11.8196046,13.1735334 C11.557623,13.2749119 11.1639568,13.3955081 10.4390729,13.4284193 C9.65522287,13.464034 9.42009757,13.471586 7.43479748,13.471586 C5.44946765,13.471586 5.21437177,13.464034 4.43049228,13.4284193 C3.70560841,13.3955081 3.31194225,13.2749119 3.04996065,13.1735334 C2.7029242,13.0392435 2.45525579,12.8788303 2.19510408,12.6197716 C1.93495205,12.3607424 1.77381429,12.1141426 1.63894237,11.7686036 C1.53712458,11.5077525 1.41600577,11.115785 1.38295197,10.3940289 C1.34718292,9.61344361 1.3395982,9.37930355 1.3395982,7.40271674 C1.3395982,5.42610033 1.34718292,5.19196027 1.38295197,4.41137496 C1.41600577,3.68961892 1.53712458,3.29765141 1.63894237,3.03680024 C1.77381429,2.69126123 1.93492262,2.4446615 2.19510408,2.18563233 C2.45525579,1.92657354 2.7029242,1.76616038 3.04996065,1.63187043 C3.31194225,1.53049197 3.70560841,1.40989579 4.43049228,1.37698461 C5.21446037,1.3413699 5.44961511,1.33381791 7.43479748,1.33381791 Z M7.43479748,3.60131672 C5.32622374,3.60131672 3.61692354,5.30324138 3.61692354,7.40271674 C3.61692354,9.5021625 5.32622374,11.2040872 7.43479748,11.2040872 C9.54334148,11.2040872 11.2526417,9.5021625 11.2526417,7.40271674 C11.2526417,5.30324138 9.54334148,3.60131672 7.43479748,3.60131672 Z M7.43479748,9.87026925 C6.06607042,9.87026925 4.95652174,8.76550821 4.95652174,7.40271674 C4.95652174,6.03989567 6.06607042,4.93513463 7.43479748,4.93513463 C8.8034948,4.93513463 9.91304348,6.03989567 9.91304348,7.40271674 C9.91304348,8.76550821 8.8034948,9.87026925 7.43479748,9.87026925 Z M12.2956695,3.45112977 C12.2956695,3.94174292 11.8962188,4.33944043 11.4034795,4.33944043 C10.9107696,4.33944043 10.5113192,3.94174292 10.5113192,3.45112977 C10.5113192,2.96051663 10.9107696,2.5627895 11.4034795,2.5627895 C11.8962188,2.5627895 12.2956695,2.96051663 12.2956695,3.45112977 Z" id="Instagram"></path>
                            </g>
                        </g>
                    </g>
                </g>
            </g>
        </g>
    </g>
</svg>